inDegrees=yes
name=ik_S41_A02_T01
DataType=double
version=3
OpenSimVersion=4.3-2021-08-27-4bc7ad9
endheader
time	pelvis_tilt	pelvis_list	pelvis_rotation	pelvis_tx	pelvis_ty	pelvis_tz	hip_flexion_r	hip_adduction_r	hip_rotation_r	knee_angle_r	knee_angle_r_beta	ankle_angle_r	subtalar_angle_r	mtp_angle_r	hip_flexion_l	hip_adduction_l	hip_rotation_l	knee_angle_l	knee_angle_l_beta	ankle_angle_l	subtalar_angle_l	mtp_angle_l	lumbar_extension	lumbar_bending	lumbar_rotation	arm_flex_r	arm_add_r	arm_rot_r	elbow_flex_r	pro_sup_r	wrist_flex_r	wrist_dev_r	arm_flex_l	arm_add_l	arm_rot_l	elbow_flex_l	pro_sup_l	wrist_flex_l	wrist_dev_l
20.41999999999965	-1.822727540708379	-5.656088239470087	80.09835201216084	0	0.9399999999999999	0	11.28438926684431	0.5732231381109865	4.50263636367114	10.65278762570578	0.1859262185842753	0	0	0	26.37904322578937	5.008208719157638	15.27026891975493	22.45965375409981	0.3919949068669467	0	0	0	0	0	0	36.5936361492299	-36.59363614922993	4.730815689141217	81.35471479932292	85.26918457346343	0	0	36.5936361492299	-36.59363614922993	4.730815689141217	81.35471479932292	85.26918457341334	0	0
20.43999999999965	-1.730289275414582	-5.335939411271116	78.00280127710769	0	0.9399999999999999	0	11.49380766087208	0.4970791368759829	5.365141968319572	11.25609786807906	0.196455968724694	0	0	0	25.71434267047127	4.536113399205992	15.44546985372969	22.61081141757339	0.394633105784182	0	0	0	0	0	0	36.59509990683284	-36.59509990683286	4.730909767446255	81.35599066104301	85.26909049516294	0	0	36.59509990683284	-36.59509990683286	4.730909767446255	81.35599066104301	85.26909049511286	0	0
20.45999999999965	-1.61261698249556	-5.005370145346498	75.80525800569805	0	0.9399999999999999	0	11.73192816082914	0.3472559868085755	6.384905864269751	11.81569444394978	0.2062227714565242	0	0	0	24.34198318567901	4.339598042003653	18.09436929916294	22.6949896196909	0.3961022925695419	0	0	0	0	0	0	36.61391951815209	-36.61391951815212	4.731955537488439	81.37016373112874	85.26804472516982	0	0	36.61391951815209	-36.61391951815212	4.731955537488439	81.37016373112874	85.26804472511994	0	0
20.47999999999965	-1.510160044974457	-4.750311203943832	73.30693917441751	0	0.9399999999999999	0	11.90389940487979	0.2465457566904487	7.220397051485845	12.28906338342582	0.214484618027055	0	0	0	23.36494670922486	3.648989987931937	18.52526976988307	23.18669800679193	0.4046842228841258	0	0	0	0	0	0	36.63627786479831	-36.63627786479834	4.733183303328287	81.38680237548104	85.2668169593875	0	0	36.63627786479831	-36.63627786479834	4.733183303328287	81.38680237548104	85.26681695933783	0	0
20.49999999999965	-1.383872693834228	-4.45244051030986	69.22382283497645	0	0.9399999999999999	0	11.798961973311	0.4664641800567694	8.858373660215179	12.66275018058505	0.2210066830087156	0	0	0	22.18715416473176	2.238387426114464	16.7665596939405	22.30935996053523	0.3893717853239319	0	0	0	0	0	0	36.6659565947356	-36.66595659473562	4.734823969631941	81.40903730103624	85.26517629316074	0	0	36.6659565947356	-36.66595659473562	4.734823969631941	81.40903730103624	85.26517629311144	0	0
20.51999999999965	-1.341719822074828	-4.336154135373988	66.21196252034265	0	0.9399999999999999	0	11.96707238853959	0.3929176390524982	9.659680136710044	13.02119692098587	0.2272627588217513	0	0	0	21.06250913314279	1.383753934759611	16.42078063262823	22.62592524955661	0.3948968919148824	0	0	0	0	0	0	36.68948305711589	-36.68948305711591	4.736109352262867	81.42645630266988	85.26389091058992	0	0	36.68948305711589	-36.68948305711591	4.736109352262867	81.42645630266988	85.26389091054091	0	0
20.53999999999965	-1.400608327345605	-4.392409365326237	63.27387430142021	0	0.9399999999999999	0	12.82510584184553	-0.07557257878833763	9.721915648464419	13.84483081202936	0.2416378820514725	0	0	0	20.27426966091245	0.7156003953365557	16.65914548559715	23.37736581478645	0.4080120039111904	0	0	0	0	0	0	36.71215755806924	-36.71215755806927	4.73735460331249	81.44333184484208	85.26264565959858	0	0	36.71215755806924	-36.71215755806927	4.73735460331249	81.44333184484208	85.26264565954988	0	0
20.55999999999965	-1.506564426107804	-4.408514253748267	60.41117093049488	0	0.9399999999999999	0	13.2557185023397	-0.5852479342113578	10.45348465418819	13.77738436061613	0.2404607194055252	0	0	0	19.41744742954969	0.03926948361571628	16.22535640293966	22.75289943536291	0.3971130095222415	0	0	0	0	0	0	36.73543407500348	-36.73543407500348	4.738636386338243	81.46070265244106	85.26136387663288	0	0	36.73543407500348	-36.73543407500348	4.738636386338243	81.46070265244106	85.2613638765844	0	0
20.57999999999965	-1.609756024320136	-4.371352230694941	57.67210358267	0	0.9399999999999999	0	13.30936397983566	-0.1258820852238972	13.03540833414772	13.71429892264518	0.2393596708028694	0	0	0	19.41618065448715	-0.4219304778141162	13.97779875680333	23.07893718765194	0.4028034417854867	0	0	0	0	0	0	36.73982274207935	-36.73982274207936	4.738914245565869	81.46447044381317	85.26108601741862	0	0	36.73982274207935	-36.73982274207936	4.738914245565869	81.46447044381317	85.26108601737013	0	0
20.59999999999965	-1.741547372272504	-4.289735139200072	54.80466873611294	0	0.9399999999999999	0	13.99649601030299	-0.8970075985075343	12.46324944538825	14.22356549138579	0.2482480491977272	0	0	0	18.43682469336016	-0.8293985701469357	13.00799873059517	22.40389272329538	0.3910216932851032	0	0	0	0	0	0	36.76236933460773	-36.76236933460773	4.740147775413923	81.48118678742559	85.25985248762834	0	0	36.76236933460773	-36.76236933460773	4.740147775413923	81.48118678742559	85.25985248758001	0	0
20.61999999999965	-1.93460656617718	-4.249265634025154	52.06158059645215	0	0.9399999999999999	0	14.53489402185815	-1.276298801473846	13.32861224721458	14.34325966536691	0.2503371066291527	0	0	0	17.50203167786298	-0.6634833212737001	14.10799953372171	21.70028376949396	0.3787414003947559	0	0	0	0	0	0	36.78038235414576	-36.78038235414577	4.741125723981284	81.49443912064149	85.25887453910664	0	0	36.78038235414576	-36.78038235414577	4.741125723981284	81.49443912064149	85.2588745390585	0	0
20.63999999999965	-2.335990203922417	-4.382601011176404	49.43600500495248	0	0.9399999999999999	0	15.32508390370192	-1.727005982999781	13.38427078756399	14.45819002245345	0.2523430197708056	0	0	0	17.619830089638	-0.3350903528387774	13.6986489076271	21.990863013811	0.3838129649460452	0	0	0	0	0	0	36.79986774205219	-36.7998677420522	4.742169163315053	81.50857803656874	85.25783109982152	0	0	36.79986774205219	-36.7998677420522	4.742169163315053	81.50857803656874	85.25783109977355	0	0
